HIERARCHY
ROOT Pelvis
{
	OFFSET 0 0 0
	CHANNELS 6 Xposition Yposition Zposition Xrotation Yrotation Zrotation 
	JOINT PelvisLeftUpperLeg
	{
		OFFSET        0        0 -9.19895
		CHANNELS 6 Xposition Yposition Zposition Xrotation Yrotation Zrotation 
		JOINT LeftUpperLegLeftLowerLeg
		{
			OFFSET -0.890644  -45.8097  0.343891
			CHANNELS 6 Xposition Yposition Zposition Xrotation Yrotation Zrotation 
			JOINT LeftLowerLegLeftFoot
			{
				OFFSET -1.29749 -44.4256        0
				CHANNELS 6 Xposition Yposition Zposition Xrotation Yrotation Zrotation 
				End Site
{
					OFFSET  15.3609   1.8433 -4.30104
				}
			}
		}
	}
	JOINT PelvisRightUpperLeg
	{
		OFFSET       0       0 9.19895
		CHANNELS 6 Xposition Yposition Zposition Xrotation Yrotation Zrotation 
		JOINT RightUpperLegRightLowerLeg
		{
			OFFSET -0.890644  -45.8097 -0.343891
			CHANNELS 6 Xposition Yposition Zposition Xrotation Yrotation Zrotation 
			JOINT RightLowerLegRightFoot
			{
				OFFSET -1.29749 -44.4256        0
				CHANNELS 6 Xposition Yposition Zposition Xrotation Yrotation Zrotation 
				End Site
{
					OFFSET 15.3609  1.8433 4.30104
				}
			}
		}
	}
	JOINT PelvisThorax
	{
		OFFSET -2.57589  15.8963        0
		CHANNELS 6 Xposition Yposition Zposition Xrotation Yrotation Zrotation 
		JOINT ThoraxLeftUpperArm
		{
			OFFSET -11.5193  39.6182  -18.732
			CHANNELS 6 Xposition Yposition Zposition Xrotation Yrotation Zrotation 
			JOINT LeftUpperArmLeftForearm
			{
				OFFSET  1.36806  -29.796 0.998672
				CHANNELS 6 Xposition Yposition Zposition Xrotation Yrotation Zrotation 
				JOINT LeftForearmLeftHand
				{
					OFFSET 0.077273 -24.5989 0.518175
					CHANNELS 6 Xposition Yposition Zposition Xrotation Yrotation Zrotation 
					End Site
{
						OFFSET        0 -10.1353        0
					}
				}
			}
		}
		JOINT ThoraxRightUpperArm
		{
			OFFSET -11.5193  39.6182   18.732
			CHANNELS 6 Xposition Yposition Zposition Xrotation Yrotation Zrotation 
			JOINT RightUpperArmRightForearm
			{
				OFFSET   1.36806   -29.796 -0.998672
				CHANNELS 6 Xposition Yposition Zposition Xrotation Yrotation Zrotation 
				JOINT RightForearmRightHand
				{
					OFFSET  0.077273  -24.5989 -0.518175
					CHANNELS 6 Xposition Yposition Zposition Xrotation Yrotation Zrotation 
					End Site
{
						OFFSET        0 -10.1353        0
					}
				}
			}
		}
		JOINT ThoraxHead
		{
			OFFSET      -16.016      54.2047 -1.15196e-17
			CHANNELS 6 Xposition Yposition Zposition Xrotation Yrotation Zrotation 
			End Site
{
				OFFSET       0 11.9494       0
			}
		}
	}
}
MOTION
Frames: 10
Frame Time: 0.01
77.4349 88.5449 34.3947 11.4683 27.0869 1.63115 0.079417 0.00887475 -9.28652 2.55855 19.2759 7.23563 0.154302 -46.2067 0.420628 -8.9323 6.60249 -42.9572 -4.30231 -50.5867 0.594793 -3.75678 19.0744 23.017 0.0198524 0.00555261 9.29669 -16.5106 -9.73053 33.2381 0.0841221 -46.4587 -0.321667 10.0474 10.3026 -52.0679 -5.76593 -49.6691 -0.232478 1.49052 -11.618 9.05979 -2.64984 15.9018 -0.0542512 19.2549 -15.6256 -67.8357 -11.4467 39.7583 -18.6223 -14.7112 27.9773 31.1818 3.60829 -31.5206 -0.342006 -7.1447 -46.0351 42.2446 0.031453 -24.6127 0.513874 4.78039 -10.9614 1.88547 -11.6568 39.6194 18.8896 -26.3265 -38.0881 60.775 0.954069 -30.9209 1.93796 -6.79002 -1.42871 16.1447 0.0416655 -24.5357 -0.472539 -32.7614 15.4695 10.7957 -16.0552 54.2359 0.116869 15.5052 -25.575 35.8237 
77.4312 88.5207 34.3754 11.5173 27.0924 1.61735 0.0793654 0.00612786 -9.27617 2.56016 19.3333 7.25515 0.156243 -46.2097 0.431283 -8.95372 6.601 -43.0493 -4.30303 -50.5877 0.583116 -3.73796 18.9993 23.0173 0.00379361 -0.00695024 9.29344 -16.5822 -9.6684 33.2971 0.0855535 -46.4517 -0.310824 10.0873 10.2365 -52.1632 -5.76494 -49.6736 -0.23795 1.49491 -11.6436 9.07811 -2.65024 15.9099 -0.0482061 19.2312 -15.6607 -67.9224 -11.457 39.7627 -18.6208 -14.7647 27.9774 31.2834 3.59803 -31.5135 -0.337455 -7.09611 -46.0099 42.2291 0.0279637 -24.6168 0.518502 4.79543 -10.9442 1.89374 -11.6241 39.6034 18.8741 -26.4938 -38.1632 60.774 0.941756 -30.9322 1.90752 -6.78322 -1.40185 16.0572 0.0355739 -24.5293 -0.478971 -32.5734 15.6076 10.8485 -16.0624 54.2389 0.120596 15.564 -25.6061 35.9651 
77.4226 88.4955 34.3635 11.5507 27.1048 1.62465 0.0742754 0.00414925 -9.26694 2.58096 19.3311 7.26509 0.150593 -46.199 0.434303 -9.00015 6.62035 -43.105 -4.31194 -50.5897 0.575415 -3.72395 18.9444 23.0033 -0.0131661 -0.0213479 9.28998 -16.7045 -9.53444 33.3128 0.100189 -46.4456 -0.309923 10.1018 10.0588 -52.2093 -5.77028 -49.6758 -0.236843 1.47868 -11.6257 9.08433 -2.64302 15.9129 -0.044254 19.2582 -15.6821 -67.9995 -11.4554 39.7669 -18.6182 -14.7793 27.9177 31.3293 3.59114 -31.5063 -0.340615 -7.0312 -45.9447 42.2686 0.0269617 -24.623 0.520008 4.80701 -10.9317 1.88142 -11.6132 39.588 18.8702 -26.6918 -38.2658 60.7625 0.935621 -30.9412 1.88594 -6.98071 -0.783698 15.9154 0.0200332 -24.541 -0.486952 -32.663 15.8881 10.9079 -16.0654 54.2385 0.125905 15.6414 -25.7023 36.124 
77.4076 88.4676 34.3677 11.5536 27.1221 1.62503 0.0604008 0.00599152 -9.26417 2.63067 19.2152 7.30386 0.154671 -46.1928 0.433568 -9.07866 6.71824 -43.1567 -4.31285 -50.5929 0.568268 -3.66505 18.9456 23.0035 -0.0171935 -0.0244584 9.28495 -16.7892 -9.41726 33.3349 0.104835 -46.4364 -0.306456 10.0602 9.85888 -52.2032 -5.78522 -49.6737 -0.238816 1.4951 -11.5698 9.06424 -2.63649 15.9119 -0.0430181 19.3587 -15.6766 -68.0324 -11.4408 39.771 -18.6171 -14.7552 27.7993 31.3188 3.58851 -31.4982 -0.348034 -6.95302 -45.8396 42.3625 0.0270214 -24.6273 0.520788 4.81342 -10.9259 1.84667 -11.621 39.5705 18.87 -26.9216 -38.3962 60.7383 0.950347 -30.9461 1.87709 -7.37669 0.428119 15.726 -0.000311845 -24.5626 -0.484779 -33.0267 16.3137 10.9705 -16.0647 54.2356 0.130911 15.7106 -25.8796 36.2836 
77.3915 88.4443 34.3786 11.5619 27.115 1.61501 0.0674633 0.00723442 -9.27016 2.66942 19.2463 7.31727 0.16021 -46.1934 0.439968 -9.14665 6.71929 -43.1843 -4.32448 -50.5905 0.564531 -3.58955 18.9348 22.9872 -0.00479879 -0.0130051 9.28137 -16.8093 -9.37176 33.3665 0.094064 -46.4232 -0.300292 10.0625 9.79526 -52.2007 -5.79049 -49.671 -0.237302 1.4931 -11.5497 9.01899 -2.65164 15.9162 -0.045627 19.4777 -15.62 -68.0871 -11.4269 39.778 -18.6209 -14.7627 27.6436 31.3415 3.59377 -31.4881 -0.367162 -6.87071 -45.7738 42.4496 0.027406 -24.6297 0.519027 4.84243 -10.8995 1.82034 -11.6362 39.547 18.8696 -27.2112 -38.5464 60.7196 0.95044 -30.964 1.80244 -8.06221 1.74457 15.6165 -0.0206887 -24.5953 -0.49942 -33.7999 16.863 11.038 -16.076 54.2341 0.147702 15.8592 -26.1625 36.5266 
77.3933 88.426 34.4328 11.5592 27.0961 1.60222 0.0690265 0.0107262 -9.27101 2.72275 19.2707 7.33101 0.164868 -46.1944 0.450935 -9.17684 6.73959 -43.1965 -4.34518 -50.5872 0.575853 -3.5639 18.868 22.9546 0.00702567 0.00875381 9.28457 -16.7669 -9.34704 33.3979 0.0715794 -46.395 -0.290454 10.1317 9.85609 -52.1488 -5.8074 -49.6509 -0.249287 1.48444 -11.7111 8.8672 -2.63523 15.8878 -0.0550842 19.6244 -15.5424 -68.0483 -11.4139 39.7652 -18.6295 -14.7758 27.508 31.3069 3.60013 -31.4769 -0.387327 -6.79658 -45.7544 42.4924 0.0275828 -24.6316 0.518014 4.89769 -10.8954 1.81668 -11.6497 39.5399 18.8747 -27.4923 -38.6095 60.5365 0.987384 -30.9663 1.75652 -8.81339 2.822 15.7422 -0.0290861 -24.6231 -0.506708 -34.896 17.5008 11.2074 -16.066 54.2196 0.164694 16.0064 -26.5662 36.6774 
77.3945 88.4163 34.484 11.5345 27.0925 1.60831 0.0641749 0.0185428 -9.27924 2.76019 19.2427 7.34705 0.165353 -46.1938 0.438341 -9.19518 6.75495 -43.1937 -4.35349 -50.5889 0.589719 -3.53913 18.8958 22.9291 0.0211309 0.0280483 9.28855 -16.6866 -9.37869 33.4012 0.0659025 -46.3828 -0.286096 10.2463 9.94726 -52.1282 -5.81368 -49.636 -0.240091 1.41118 -11.9179 8.74035 -2.63352 15.8616 -0.0529315 19.7651 -15.4778 -68.0212 -11.4298 39.7457 -18.6456 -14.825 27.3467 31.355 3.59519 -31.4718 -0.412938 -6.7434 -45.7052 42.4592 0.0272215 -24.6327 0.518924 4.95369 -10.898 1.82197 -11.6584 39.5345 18.8704 -27.6054 -38.7229 60.4253 1.02614 -30.9532 1.71143 -9.59972 3.58155 16.0816 -0.00562026 -24.6089 -0.516575 -35.37 18.0091 11.263 -16.0611 54.2053 0.17019 16.1851 -26.9827 36.7952 
77.3938 88.4098 34.5401 11.4881 27.0941 1.59222 0.0673465 0.0281868 -9.29199 2.80461 19.1767 7.38381 0.181637 -46.2031 0.425406 -9.16704 6.827 -43.202 -4.35343 -50.5938 0.599422 -3.53964 18.9026 22.9553 0.0356975 0.0447137 9.29341 -16.601 -9.37291 33.4158 0.0753204 -46.3839 -0.273613 10.2823 9.92242 -52.0873 -5.82094 -49.6375 -0.209053 1.31459 -11.9903 8.68282 -2.62739 15.8279 -0.0364159 19.8756 -15.4154 -67.9278 -11.4563 39.7188 -18.6642 -14.8467 27.2509 31.3928 3.58636 -31.4672 -0.425189 -6.75461 -45.6404 42.3562 0.0270261 -24.6324 0.520054 4.9921 -10.8953 1.8385 -11.6552 39.5611 18.8547 -27.2839 -38.8763 60.4546 1.09573 -30.8963 1.80218 -9.82709 3.44414 16.6561 0.0500559 -24.5705 -0.515932 -35.3521 18.4565 11.2761 -16.0427 54.1901 0.163898 16.3461 -27.3549 36.7863 
77.4158 88.4148 34.6033 11.4336 27.117 1.58248 0.0666425 0.0335677 -9.30921 2.85099 19.0115 7.40304 0.197702 -46.2071 0.41237 -9.06884 6.99981 -43.1476 -4.36803 -50.5911 0.607743 -3.55047 18.8479 22.9367 0.0415001 0.0617975 9.30499 -16.4766 -9.35152 33.4105 0.0739457 -46.3901 -0.259063 10.2509 9.94318 -52.0393 -5.81382 -49.6386 -0.206397 1.25558 -12.0731 8.66126 -2.6389 15.8054 -0.0142293 19.9617 -15.337 -67.845 -11.4803 39.7041 -18.6828 -14.8648 27.1722 31.4412 3.57935 -31.4647 -0.430786 -6.76558 -45.5921 42.2528 0.02672 -24.6311 0.519873 5.02826 -10.8851 1.8482 -11.6684 39.5804 18.8348 -26.8192 -39.0534 60.5351 1.16409 -30.8154 1.99771 -9.32413 2.32936 17.2767 0.13475 -24.5898 -0.550398 -35.9907 17.4579 11.4577 -16.0285 54.1781 0.154297 16.5337 -27.6266 36.6844 
77.443 88.4312 34.6363 11.3767 27.1944 1.53233 0.0889865 0.0367608 -9.31571 2.89044 18.8411 7.43468 0.201376 -46.199 0.416556 -8.95279 7.10407 -43.0409 -4.38002 -50.5769 0.63323 -3.64296 18.767 22.8716 0.053601 0.0757101 9.30318 -16.4162 -9.33541 33.3664 0.0930819 -46.3959 -0.272836 10.1781 9.88143 -51.9406 -5.80156 -49.635 -0.218906 1.22231 -12.0917 8.69145 -2.66552 15.8022 -0.000597828 20.0649 -15.2755 -67.7181 -11.5004 39.6897 -18.7009 -14.8691 27.025 31.4841 3.57468 -31.4646 -0.436605 -6.75384 -45.4968 42.1791 0.0276683 -24.627 0.516101 5.02157 -10.8868 1.82865 -11.6978 39.6083 18.8128 -26.2096 -39.3302 60.6193 1.20877 -30.775 2.10054 -8.76554 1.0499 17.9583 0.206644 -24.7008 -0.650227 -38.3363 14.8605 12.5458 -16.0309 54.1743 0.145782 16.7337 -27.8602 36.5787 
